<svg width="229" height="109" viewBox="0 0 229 109" fill="none" xmlns="http://www.w3.org/2000/svg">
    <path d="M0 54.7107C1.78761 72.6142 3.50646 108.421 9.48806 108.421C15.4697 108.421 23.3076 1 28.6705 1C33.002 1 36.5772 36.8071 38.3648 54.7107" stroke="#1464FF" stroke-width="0.715963"/>
    <path d="M38.3633 54.7107C40.0615 72.6142 41.6944 108.421 47.3769 108.421C53.0595 108.421 60.5055 1 65.6002 1C69.7151 1 73.1116 36.8071 74.8098 54.7107" stroke="#1464FF" stroke-width="0.715963"/>
    <path d="M74.8125 54.7107C76.6001 72.6142 78.319 108.421 84.3006 108.421C90.2822 108.421 98.1201 1 103.483 1C107.814 1 111.39 36.8071 113.177 54.7107" stroke="#1464FF" stroke-width="0.715963"/>
    <path d="M113.176 54.7107C114.963 72.6142 116.682 108.421 122.664 108.421C128.645 108.421 136.483 1 141.846 1C146.178 1 149.753 36.8071 151.541 54.7107" stroke="#1464FF" stroke-width="0.715963"/>
    <path d="M151.539 54.7107C153.327 72.6142 155.046 108.421 161.027 108.421C167.009 108.421 174.847 1 180.21 1C184.541 1 188.116 36.8071 189.904 54.7107" stroke="#1464FF" stroke-width="0.715963"/>
    <path d="M189.906 54.7107C191.694 72.6142 193.413 108.421 199.394 108.421C205.376 108.421 213.214 1 218.577 1C222.908 1 226.483 36.8071 228.271 54.7107" stroke="#1464FF" stroke-width="0.715963"/>
</svg>