<svg width="27" height="27" viewBox="0 0 27 27" fill="none" xmlns="http://www.w3.org/2000/svg">
    <rect width="27" height="27" rx="5" fill="#1464FF"/>
    <path d="M7.62598 7.18993C7.62598 6.74099 7.77534 6.37062 8.07406 6.07882C8.37277 5.78701 8.76112 5.64111 9.23906 5.64111C9.70848 5.64111 10.0883 5.78476 10.3785 6.07209C10.6772 6.36839 10.8265 6.75446 10.8265 7.23034C10.8265 7.66131 10.6815 8.02045 10.3913 8.30778C10.0926 8.60408 9.69995 8.75222 9.21346 8.75222H9.20066C8.73124 8.75222 8.35144 8.60408 8.06125 8.30778C7.77106 8.01148 7.62598 7.63886 7.62598 7.18993ZM7.79241 18.9744V9.97781H10.6345V18.9744H7.79241ZM12.2092 18.9744H15.0513V13.9509C15.0513 13.6366 15.0854 13.3942 15.1537 13.2236C15.2732 12.9183 15.4546 12.6602 15.6978 12.4492C15.9411 12.2382 16.2462 12.1327 16.6132 12.1327C17.5691 12.1327 18.047 12.8106 18.047 14.1664V18.9744H20.8891V13.8162C20.8891 12.4873 20.5904 11.4795 19.993 10.7926C19.3955 10.1058 18.6061 9.76232 17.6246 9.76232C16.5236 9.76232 15.6658 10.2606 15.0513 11.2573V11.2842H15.0385L15.0513 11.2573V9.97781H12.2092C12.2263 10.2651 12.2348 11.1585 12.2348 12.6579C12.2348 14.1574 12.2263 16.2629 12.2092 18.9744Z" fill="white"/>
</svg>