<svg width="669" height="569" viewBox="0 0 669 569" fill="none" xmlns="http://www.w3.org/2000/svg">
<path d="M110.57 347.198L8.64429 240.383C0.577793 231.931 -1.66341 219.508 2.89229 208.795C3.05919 208.402 3.26639 208.026 3.49799 207.669L126.19 18.2116C126.422 17.8524 126.627 17.4763 126.81 17.0899C133.065 3.98709 148.044 -2.56821 161.966 1.80359L367.262 58.511C383.25 63.5314 388.925 83.2316 378.055 95.981L150.272 346.089C139.985 358.152 121.515 358.669 110.57 347.198Z" fill="#FFE478"/>
<path d="M385.948 567.98C512.735 555.472 589.259 519.465 653.015 488.843C666.428 482.4 672.463 466.472 665.291 453.448C617.365 366.407 523.071 292.273 465.365 255.606C454.092 248.442 439.332 251.12 432.696 262.668C396.858 325.044 370.156 454.382 357.257 537.658C354.609 554.752 368.672 569.685 385.945 567.981L385.948 567.98Z" fill="#F78239"/>
</svg>
