<svg width="27" height="27" viewBox="0 0 27 27" fill="none" xmlns="http://www.w3.org/2000/svg">
    <rect width="27" height="27" rx="5" fill="#1464FF"/>
    <path d="M14.1252 18.9856L10.9327 18.9259C9.89906 18.9051 8.86282 18.9466 7.84943 18.7312C6.30782 18.4094 6.1986 16.8314 6.08432 15.5077C5.92686 13.6468 5.98782 11.7521 6.28498 9.90675C6.45273 8.8713 7.11292 8.25345 8.13388 8.18621C11.5804 7.94221 15.0498 7.97112 18.4886 8.08496C18.8518 8.0954 19.2175 8.15244 19.5756 8.21736C21.3433 8.53402 21.3864 10.3223 21.501 11.8276C21.6153 13.3485 21.5671 14.8773 21.3486 16.3878C21.1734 17.6385 20.8381 18.6873 19.4232 18.7886C17.6504 18.921 15.9182 19.0276 14.1404 18.9936C14.1405 18.9856 14.1303 18.9856 14.1252 18.9856ZM12.2483 15.8192C13.5843 15.0353 14.8948 14.2645 16.2231 13.4859C14.8847 12.702 13.5767 11.9312 12.2483 11.1526V15.8192Z" fill="white"/>
</svg>